<?xml version="1.0" encoding="UTF-8" standalone="no"?><!-- Generator: Gravit.io --><svg xmlns="http://www.w3.org/2000/svg" xmlns:xlink="http://www.w3.org/1999/xlink" style="isolation:isolate" viewBox="0 0 40 40" width="40pt" height="40pt"><defs><clipPath id="_clipPath_8Qg9kw63JgTH1ANrJbDkXDrwOLXblzCa"><rect width="40" height="40"/></clipPath></defs><g clip-path="url(#_clipPath_8Qg9kw63JgTH1ANrJbDkXDrwOLXblzCa)"><rect x="0" y="0" width="40" height="40" transform="matrix(1,0,0,1,0,0)" fill="rgb(255,255,255)" style="mix-blend-mode:color;"/><clipPath id="_clipPath_5yFyQm2sFSaFpsQAXPPfLZMfiXM1LqEc"><rect x="0" y="0" width="40" height="40" transform="matrix(1,0,0,1,0,0)" fill="rgb(255,255,255)"/></clipPath><g clip-path="url(#_clipPath_5yFyQm2sFSaFpsQAXPPfLZMfiXM1LqEc)"><g><path d=" M 31.218 5.102 C 30.893 4.606 30.419 4.591 29.88 4.575 C 29.818 4.573 29.756 4.572 29.694 4.569 C 29.646 4.567 29.593 4.568 29.538 4.568 C 29.319 4.572 29.063 4.576 28.934 4.392 C 28.784 4.179 28.799 3.767 28.81 3.426 C 28.814 3.319 28.817 3.218 28.815 3.134 C 28.794 2.343 28.75 1.504 28.445 1.223 C 28.215 1.012 27.527 1.041 26.892 1.068 C 26.686 1.077 26.486 1.086 26.309 1.086 L 12.796 1.086 C 12.524 1.086 12.239 1.063 11.958 1.042 C 11.412 0.999 10.885 0.958 10.511 1.086 C 9.968 1.271 9.931 2.247 9.896 3.165 L 9.894 3.215 C 9.865 3.973 9.677 4.558 9.055 4.499 C 8.33 4.432 7.609 4.41 7.282 5.066 C 6.895 5.842 6.975 6.654 7.118 8.108 C 7.138 8.316 7.16 8.537 7.182 8.772 L 31.426 8.772 C 31.44 8.6 31.455 8.43 31.47 8.263 C 31.583 6.954 31.682 5.814 31.218 5.102 Z " fill="rgb(128,71,248)"/><path d=" M 8.999 10.215 C 9.378 15.339 9.752 20.47 10.127 25.601 L 10.127 25.604 C 10.331 28.39 10.534 31.176 10.738 33.961 L 11.512 33.961 C 11.564 34.396 11.625 34.935 11.688 35.502 C 11.817 36.654 11.96 37.926 12.08 38.708 L 12.165 38.708 C 12.953 38.42 18.401 36.092 18.403 26.822 C 18.402 26.795 18.403 26.769 18.406 26.743 L 17.06 26.743 C 16.995 26.742 16.932 26.72 16.88 26.681 C 16.829 26.641 16.792 26.586 16.775 26.524 C 16.644 26.2 16.538 25.866 16.459 25.526 C 15.667 25.974 15.039 26.656 14.662 27.477 C 14.305 26.636 14.259 25.698 14.53 24.827 C 14.802 23.955 15.375 23.206 16.149 22.709 C 16.159 20.004 17.172 17.397 18.996 15.38 L 19.024 15.355 C 19.077 15.309 19.145 15.284 19.215 15.283 C 19.256 15.284 19.296 15.292 19.333 15.309 C 19.371 15.326 19.405 15.35 19.432 15.38 C 21.277 17.4 22.285 20.032 22.253 22.753 C 23.042 23.236 23.626 23.984 23.899 24.861 C 24.171 25.737 24.112 26.681 23.734 27.518 C 23.36 26.696 22.73 26.012 21.937 25.567 C 21.889 25.897 21.799 26.219 21.671 26.527 C 21.627 26.658 21.539 26.743 21.45 26.743 L 20.015 26.743 C 20.017 26.758 20.019 26.774 20.02 26.79 L 20.02 26.794 L 20.02 26.801 C 20.021 26.815 20.021 26.829 20.02 26.842 C 20.04 36.378 25.831 38.543 26.32 38.708 L 26.487 38.708 C 26.529 37.957 26.668 36.921 26.803 35.91 C 26.897 35.214 26.988 34.53 27.045 33.961 L 27.828 33.961 C 28.078 30.453 28.336 26.955 28.594 23.456 L 28.594 23.454 L 28.594 23.453 C 28.923 18.979 29.253 14.504 29.568 10.009 L 9.049 10.009 C 8.99 10.02 8.994 10.117 8.999 10.215 Z  M 19.215 15.283 L 19.214 15.283 L 19.217 15.283 L 19.215 15.283 L 19.215 15.283 Z " fill-rule="evenodd" fill="rgb(128,71,248)"/></g></g></g></svg>